<svg xmlns="http://www.w3.org/2000/svg" width="132" height="40" viewBox="0 0 132 40"><g><g><g/><g/><g><g><path fill="#ff5626" d="M21.552 18.447a.91.91 0 1 0-1.286 1.285.91.91 0 0 0 1.286-1.285z"/></g><g><path fill="#ff5626" d="M30.635 12.45c-.852.85-2.238.85-3.09 0a2.18 2.18 0 0 1 0-3.084 2.188 2.188 0 0 1 3.09 0 2.176 2.176 0 0 1 0 3.083zm1.022-4.114a3.635 3.635 0 0 0-5.144 0 3.642 3.642 0 0 0 0 5.144 3.642 3.642 0 0 0 5.144 0 3.635 3.635 0 0 0 0-5.144z"/></g><g><path fill="#ff5626" d="M36.962 8.543l-5.508-5.499c3-.93 5.611-1.279 6.914-1.404a35.331 35.331 0 0 1-1.407 6.903zm-6.096 10.603a28.557 28.557 0 0 1-2.269 2.035 30.227 30.227 0 0 1-6.271 3.888l-7.397-7.397a30.222 30.222 0 0 1 3.887-6.272 28.552 28.552 0 0 1 2.036-2.269c2.33-2.33 5.339-4.186 8.943-5.52l6.592 6.591c-1.335 3.605-3.19 6.613-5.52 8.944zm-1.773 7.994c-1.031 1.928-3.627 3.35-5.992 3.838.754-1.42.92-3.23.645-4.326-.064-.255-.23-.383-.24-.398a31.816 31.816 0 0 0 5.389-3.31c.819 1.498.886 2.907.198 4.195zm-11.33-.422c-.228.059-.491-.027-.687-.223l-1.541-1.54-2.032-2.033c-.196-.196-.282-.46-.224-.687.252-.982.582-1.988.982-3.005l6.506 6.506c-1.016.4-2.023.73-3.004.982zm-3.587 2.434c-1.082 1.08-3.62 1.65-5.223 1.883.233-1.602.804-4.136 1.885-5.216.606-.605 1.308-1.063 2.014-1.322l2.648 2.644c-.259.705-.718 1.406-1.324 2.011zM9.03 16.906c.489-2.368 1.908-4.968 3.834-6 1.287-.69 2.694-.622 4.19.198a31.87 31.87 0 0 0-3.306 5.396c-.011-.007-.153-.185-.416-.245-.108-.024-2.19-.473-4.302.651zM39.767.23a.784.784 0 0 0-.585-.23c-.178.007-4.413.177-9.448 1.957C25.7 3.38 22.337 5.42 19.74 8.019c-.582.582-1.148 1.199-1.69 1.84-2.569-1.512-4.627-1.038-5.929-.341-2.996 1.603-4.85 5.957-4.85 9.07a.787.787 0 0 0 1.343.557c1.58-1.58 3.53-1.481 4.166-1.398l.275.276a27.673 27.673 0 0 0-1.3 3.821c-.115.452-.076.93.096 1.367a7.45 7.45 0 0 0-2.124 1.498c-2.026 2.025-2.437 6.96-2.453 7.17a.787.787 0 0 0 .846.846c.209-.017 5.145-.428 7.17-2.453a7.45 7.45 0 0 0 1.498-2.124c.462.182.939.204 1.367.094 1.247-.32 2.53-.756 3.82-1.299l.276.276c.084.636.182 2.585-1.397 4.165a.787.787 0 0 0 .556 1.343c3.114 0 7.467-1.854 9.07-4.85.697-1.301 1.171-3.36-.34-5.928a29.946 29.946 0 0 0 1.84-1.69c2.598-2.599 4.637-5.961 6.062-9.996 1.78-5.035 1.95-9.27 1.956-9.448a.787.787 0 0 0-.23-.585z"/></g><g><path fill="#581646" d="M16.258 32.84a.377.377 0 0 0-.533 0l-1.065 1.065a.377.377 0 1 0 .533.533l1.065-1.065a.377.377 0 0 0 0-.533z"/></g><g><path fill="#ffc500" d="M7.158 23.75a.376.376 0 0 0-.533 0L5.56 24.815a.377.377 0 0 0 .533.533l1.065-1.065a.377.377 0 0 0 0-.533z"/></g><g><path fill="#91053d" d="M12.48 32.973a.829.829 0 0 0-1.172 0l-5.615 5.615a.829.829 0 0 0 1.172 1.172l5.615-5.615a.829.829 0 0 0 0-1.172z"/></g><g><path fill="#ff5626" d="M7.03 32.973a.829.829 0 0 0-1.172 0L.243 38.588a.829.829 0 0 0 1.172 1.172l5.615-5.615a.829.829 0 0 0 0-1.172z"/></g><g><path fill="#ff5626" d="M7.03 27.513a.83.83 0 0 0-1.172 0L.243 33.128A.829.829 0 1 0 1.415 34.3l5.615-5.615a.829.829 0 0 0 0-1.172z"/></g><g><path fill="#ffc500" d="M25.302 14.706a.533.533 0 0 0-.753 0l-.753.753a.533.533 0 0 0 .753.753l.753-.753a.533.533 0 0 0 0-.753z"/></g></g></g></g></svg>